<?xml version="1.0" encoding="UTF-8"?>
<svg id="_レイヤー_1" data-name="レイヤー 1" xmlns="http://www.w3.org/2000/svg" viewBox="0 0 40 165">
  <defs>
    <style>
      .cls-1 {
        fill: #fff;
        stroke-width: 0px;
      }
    </style>
  </defs>
  <path class="cls-1" d="m16.62,5.08c-.11.11-.65.5-.76.58-.11,3.02-.11,12.81-.11,16.41,0,1.69.22,9.18.22,10.73,0,1.04-.97,1.55-1.91,1.55-.43,0-.65-.11-.65-.79,0-.25.11-1.33.11-1.55.07-1.76.14-3.85.22-6.77-.97.68-2.92,1.76-3.2,1.91-1.4.79-3.38,1.87-4.28,2.34-.07.11-.4.65-.47.72-.07.14-.22.18-.36.18s-.29-.04-.5-.5l-1.51-3.24c.36.07.79.14,1.44.14,2.12,0,7.45-1.69,8.89-2.23,0-1.76.04-9.54.04-11.12h-4.03c-1.3,0-3.28.14-4.64.4l-.86-1.55c2.7.22,5.33.29,6.01.29h3.53c-.04-1.12-.04-5.94-.07-6.95-.04-.61-.18-1.12-.54-2.45l3.31.83c.29.07.58.14.58.5,0,.22-.07.36-.43.58Zm18.47,27.61c-.9.5-1.58.83-6.66.83s-6.01,0-6.7-1.76c-.11-.29-.18-.61-.22-.97-.07-.79-.07-4.86-.07-5.98,0-1.98.11-10.65.11-12.42s-.07-6.41-.18-7.45c-.04-.36-.14-.76-.29-1.44l3.13.72c.25.07.47.11.47.43,0,.25-.11.36-1.15,1.26-.14,2.7-.14,8.78-.11,11.66,2.92-2.12,5.87-5,7.63-7.42.43-.58.43-.94.47-1.3l3.06,2.41c.07.04.29.25.29.54,0,.61-.76.54-1.73.5-4.82,3.2-5,3.31-9.72,5.9.04,1.91-.07,11.45.07,12.09.22,1.15,1.22,1.33,4.14,1.33,5.04,0,5.22-.68,5.54-1.8.32-1.15.4-1.55.94-4.46,0-.04.07-.32.07-.4h.32c.14.68.61,3.89.76,4.54.11.58.32.94.68,1.19.22.11.29.18.29.4,0,.54-.5,1.26-1.15,1.58Z"/>
  <path class="cls-1" d="m17.2,49.1c.04,1.66.11,4.82.11,6.44,0,.5,0,1.66-1.37,1.66-.86,0-.79-.58-.76-1.15h-7.02c0,5.76.07,14.97.07,20.73,0,.58-.11.79-.4,1.01-.04.04-.58.43-1.12.43-.72,0-.83-.65-.83-.97v-.4c.29-2.81.25-8.06.29-11.01,0-1.26.04-8.67.04-9.36,0-2.81-.04-5.58-.11-8.35-.04-.9-.11-1.12-.22-1.55l2.63,1.19h6.44l.65-.72c.43-.47.47-.5.65-.5.11,0,.14.04.5.32l1.22,1.01c.14.11.25.22.25.43,0,.25-.11.32-1.04.79Zm-2.02-.47h-7.02v2.77h7.02v-2.77Zm0,3.64h-7.02v2.92h7.02v-2.92Zm13.5,15.33h-8.17c.94,1.4,3.82,4.21,8.49,4.82v.18c-.14.11-.94.58-1.08.68-.72.68-.86,1.04-1.08,1.44-3.74-1.51-6.52-5.9-6.84-6.98-.29.97-.72,2.16-1.48,3.1-1.8,2.3-4.46,3.85-7.85,4.75v-.29c1.22-.54,5.54-2.48,7.31-7.7h-2.3c-1.3,0-3.28.14-4.64.43l-.86-1.55c2.7.22,5.33.25,6.01.25h2.05c.32-1.22.43-2.16.47-3.06h-1.4c-1.3,0-3.28.14-4.64.4l-.86-1.55c2.7.22,5.33.29,6.01.29h3.06c.25-.61,1.4-4.07,1.3-5.43l2.81,1.19c.14.04.32.18.32.4,0,.32-.36.47-1.37.83-.43.47-2.16,2.59-2.52,3.02h3.46l.86-.97c.36-.43.4-.47.58-.47.22,0,.29.07.65.4l1.19.97c.14.14.32.29.32.54,0,.32-.29.4-.54.4h-7.31c-.04,1.19-.18,2.05-.36,3.06h5.22l.86-1.15c.22-.29.32-.47.58-.47.22,0,.5.25.65.36l1.3,1.19c.22.22.36.32.36.54,0,.36-.29.4-.54.4Zm-12.2-5.69c-.9,0-1.12-.72-1.62-2.12-.36-1.01-.9-1.55-1.3-1.91l.07-.14c1.51.32,3.92,1.51,3.92,3.06,0,1.04-.86,1.12-1.08,1.12Zm16.85-12.6c0,11.73.11,13.07.11,24.69v.07c0,1.37,0,3.1-3.67,4-.61-1.48-1.62-2.34-2.34-2.77v-.25c1.19.04,3.06.07,3.46-.07.65-.22.68-.94.68-1.08,0-2.41-.07-17.03-.11-17.85h-7.52c-.11,1.15-1.08,1.15-1.22,1.15-.79,0-.79-.61-.79-.9,0-.14.04-.68.04-.83.07-1.33.07-2.77.07-3.96,0-2.2,0-3.6-.36-4.82l2.3,1.08h7.27l.61-.72c.32-.4.4-.4.54-.4.11,0,.18.04.47.22l1.4.97c.14.11.29.25.29.43,0,.36-.14.43-1.22,1.04Zm-1.91-.68h-7.49v2.74h7.49v-2.74Zm0,3.6h-7.49v2.95h7.49v-2.95Z"/>
  <path class="cls-1" d="m33.47,119.26c-1.58-.58-5.22-3.1-5.22-3.1-3.31-1.98-5.43-4.75-7.49-7.7.04,1.66.07,8.85.14,10.33,0,.18.04.97.04,1.12,0,.61-.07.94-.47,1.22-.47.32-1.01.47-1.22.47-.61,0-.72-.65-.72-1.01,0-.29.04-1.55.07-1.8,0-1.44.14-7.74.18-9.04-4.86,5.33-11.27,8.78-15.15,9.79l-.14-.25c4.28-1.8,11.09-7.45,13.82-10.87h-5.54c0,.83-.07,1.01-.18,1.15-.32.43-.83.65-1.37.65-.61,0-.65-.4-.65-.61,0-.11.04-.5.07-.65.14-1.73.22-5,.22-6.62,0-3.38-.07-3.82-.47-5.9l2.66,1.22h6.8c0-.54,0-1.51-.04-3.67h-9.68c-1.26,0-3.24.14-4.61.4l-.86-1.55c2.7.22,5.33.29,5.98.29h9.14c-.07-1.98-.18-3.56-.76-4.64l3.38.86c.22.07.54.14.54.4,0,.22-.11.36-.43.61-.29.25-.54.43-.72.58,0,.14-.04,1.48-.04,2.2h10.73l1.19-1.73c.18-.25.32-.43.5-.43.25,0,.5.22.68.36l1.94,1.73c.18.14.36.32.36.54,0,.32-.32.4-.54.4h-14.87v3.67h6.62l1.19-.94c.18-.14.25-.18.4-.18.11,0,.25.07.36.14l1.55,1.15c.22.18.32.25.32.47,0,.18-.11.32-.32.47q-.5.32-.86.61c0,2.74,0,2.84.29,8.42.04.36.04.72.04.76,0,.61-.11.86-.61,1.12-.32.18-.68.25-.86.25-.72,0-.72-.5-.68-1.51h-6.73c2.63,2.84,8.21,7.56,15.59,7.78v.32c-2.02.5-2.45,1.08-3.56,2.74Zm-14.61-20.73h-7.09v3.89h7.09v-3.89Zm0,4.75h-7.09v4.28h7.09v-4.28Zm9.32-4.75h-7.42v3.89h7.42v-3.89Zm0,4.75h-7.42v4.28h7.42v-4.28Z"/>
  <path class="cls-1" d="m34.01,137.38H7.99v7.45c0,9.9-1.4,13.75-4.72,17.85l-.25-.14c.47-.79,1.26-2.2,1.98-5.33,1.08-4.61,1.08-7.52,1.08-10.11,0-4.79-.14-8.13-.43-11.63l2.59,1.04h10.51s.11-3.2-.58-4.86l2.99.79c.18.04.5.22.5.47,0,.36-.61.65-1.04.83,0,.43.04,2.38.04,2.77h9.07l1.26-1.69c.11-.14.4-.43.58-.43s.54.25.68.36l1.98,1.69c.18.18.32.29.32.54,0,.32-.29.4-.54.4Zm-.54,13.1c-6.23-3.42-7.81-6.95-8.24-8.46h-5.98c-1.98,2.88-4,5.04-4.61,5.65l.47.4h4.82c.04-2.05,0-2.3-.25-4.1l2.59.83c.5.14.5.36.5.47,0,.36-.58.58-1.12.79v2.02h4.36l.58-.65c.18-.22.25-.29.4-.29.07,0,.25.11.29.14l1.4,1.08c.22.14.4.29.4.54,0,.29-.54.58-.76.68-.04,1.26.25,6.77.25,7.88s-.94,1.48-1.3,1.48c-.68,0-.68-.72-.68-1.37h-4.93v3.31c0,.5.14.94,1.04.94,1.44,0,7.38-.07,8.53-.22,1.48-.14,1.91-1.51,2.12-2.2.07-.29.5-1.58.68-2.99h.25c0,.18.25,3.49.9,4.28.04.07.32.36.36.43.11.11.11.22.11.29,0,.79-.9,1.51-1.73,1.76-1.55.43-6.7.43-8.57.43-3.64,0-5.33,0-5.51-1.69-.04-.47,0-3.64.04-4.36h-5c.07,1.84-1.08,1.87-1.3,1.87-.76,0-.76-.5-.76-.79,0-.22.07-1.22.07-1.44.07-1.15.18-3.38.18-4.46v-3.56c-2.56,2.38-4.07,3.1-5.18,3.67l-.18-.32c4.36-2.84,8.89-9.72,9.4-10.51h-2.16c-1.3,0-3.28.14-4.64.4l-.86-1.55c2.7.22,5.33.29,6.01.29h2.16c1.19-2.2,1.19-2.52,1.15-3.42l2.66.86c.4.14.54.36.54.54,0,.32-.14.36-1.26.58-.18.29-.61.97-.9,1.44h10.29l1.04-1.37c.29-.36.43-.5.61-.5s.5.25.65.36l1.8,1.44c.18.14.36.29.36.54,0,.32-.32.4-.54.4h-8.5c1.22,2.23,5.08,5.58,11.23,5.94v.22c-.94.22-2.16.54-3.31,2.3Zm-13.53-1.55h-5.08v3.46h5.08v-3.46Zm-5.08,4.32v3.46h5.04c.04-2.77.04-3.06.04-3.46h-5.08Zm11.73-4.32h-4.93v3.46h4.93v-3.46Zm0,4.32h-4.93v3.46h4.93v-3.46Z"/>
</svg>